<svg width="330" height="330" viewBox="0 0 330 330" fill="none" xmlns="http://www.w3.org/2000/svg">
<path d="M154.39 261.323C154.741 261.696 155.109 262.049 155.493 262.385C155.662 262.531 155.84 262.659 156.013 262.797C156.231 262.972 156.445 263.152 156.672 263.312C156.884 263.463 157.104 263.594 157.321 263.733C157.523 263.861 157.721 263.997 157.929 264.115C158.152 264.242 158.382 264.35 158.61 264.464C158.825 264.572 159.037 264.687 159.258 264.784C159.481 264.882 159.708 264.962 159.934 265.047C160.17 265.137 160.402 265.233 160.643 265.311C160.869 265.383 161.099 265.437 161.327 265.498C161.573 265.564 161.816 265.637 162.066 265.69C162.329 265.746 162.595 265.779 162.86 265.819C163.079 265.852 163.295 265.897 163.518 265.92C164.01 265.971 164.504 266 164.998 266C165.492 266 165.986 265.972 166.477 265.92C166.703 265.897 166.921 265.852 167.144 265.818C167.406 265.779 167.668 265.746 167.928 265.69C168.183 265.637 168.432 265.562 168.682 265.495C168.905 265.434 169.13 265.383 169.351 265.312C169.597 265.232 169.834 265.134 170.075 265.042C170.296 264.957 170.519 264.881 170.737 264.785C170.962 264.686 171.177 264.57 171.396 264.459C171.621 264.347 171.848 264.24 172.068 264.115C172.278 263.995 172.476 263.86 172.679 263.73C172.896 263.592 173.116 263.462 173.327 263.311C173.549 263.154 173.758 262.977 173.971 262.808C174.15 262.665 174.333 262.533 174.507 262.382C174.872 262.063 175.221 261.726 175.556 261.373C175.572 261.356 175.59 261.343 175.605 261.326L245.607 186.847C251.464 180.614 251.464 170.51 245.607 164.277C239.75 158.045 230.252 158.044 224.394 164.275L179.998 211.51V15.9601C179.998 7.14588 173.282 0 164.998 0C156.714 0 149.998 7.14588 149.998 15.9601V211.509L105.606 164.277C99.7494 158.044 90.2514 158.044 84.3935 164.277C78.5355 170.51 78.5355 180.614 84.3935 186.847L154.39 261.323Z" fill="white"/>
<path d="M315 160C306.716 160 300 167.136 300 175.938V298.125H30V175.938C30 167.136 23.284 160 15 160C6.716 160 0 167.136 0 175.938V314.062C0 322.864 6.716 330 15 330H315C323.284 330 330 322.864 330 314.062V175.938C330 167.136 323.284 160 315 160Z" fill="white"/>
</svg>
