<svg width="481" height="130" viewBox="0 0 481 130" fill="none" xmlns="http://www.w3.org/2000/svg">
<path d="M92.4974 55.5866H52.1413C51.1 55.5866 50.256 56.4319 50.256 57.4746V77.204C50.256 78.2453 51.1 79.0933 52.1413 79.0933H67.884V103.607C67.884 103.607 64.3493 104.812 54.576 104.812C43.0467 104.812 26.94 100.599 26.94 65.1799C26.94 29.7559 43.712 25.0947 59.4573 25.0947C73.088 25.0947 78.9587 27.4933 82.696 28.6493C83.8707 29.0093 84.956 27.8413 84.956 26.7986L89.4573 7.73463C89.4573 7.24797 89.292 6.65999 88.7373 6.26133C87.22 5.17999 77.9627 -3.96889e-07 54.576 -3.96889e-07C27.636 -3.96889e-07 0 11.4613 0 66.5626C0 121.664 31.64 129.875 58.3027 129.875C80.3787 129.875 93.7707 120.441 93.7707 120.441C94.3227 120.136 94.3827 119.365 94.3827 119.011V57.4746C94.3827 56.4319 93.5387 55.5866 92.4974 55.5866" fill="#161312"/>
<path d="M300.476 6.60129C300.476 5.55196 299.644 4.70396 298.602 4.70396H275.879C274.842 4.70396 273.998 5.55196 273.998 6.60129C273.998 6.60663 274.004 50.5146 274.004 50.5146H238.584V6.60129C238.584 5.55196 237.75 4.70396 236.71 4.70396H213.988C212.955 4.70396 212.111 5.55196 212.111 6.60129V125.505C212.111 126.555 212.955 127.408 213.988 127.408H236.71C237.75 127.408 238.584 126.555 238.584 125.505V74.6466H274.004C274.004 74.6466 273.942 125.501 273.942 125.505C273.942 126.555 274.784 127.408 275.824 127.408H298.6C299.642 127.408 300.474 126.555 300.476 125.505V6.60129" fill="#161312"/>
<path d="M135.376 22.204C135.376 14.0226 128.817 7.41061 120.724 7.41061C112.639 7.41061 106.073 14.0226 106.073 22.204C106.073 30.3786 112.639 37.0079 120.724 37.0079C128.817 37.0079 135.376 30.3786 135.376 22.204Z" fill="#161312"/>
<path d="M133.752 100.424C133.752 97.376 133.752 45.5373 133.752 45.5373C133.752 44.4946 132.911 43.6426 131.872 43.6426H109.22C108.181 43.6426 107.252 44.7147 107.252 45.756C107.252 45.756 107.252 111.803 107.252 124.392C107.252 126.703 108.692 127.391 110.555 127.391C110.555 127.391 120.224 127.391 130.963 127.391C133.203 127.391 133.752 126.291 133.752 124.355C133.752 120.14 133.752 103.628 133.752 100.424" fill="#161312"/>
<path d="M386.832 43.8213H364.284C363.25 43.8213 362.408 44.6747 362.408 45.7227V104.025C362.408 104.025 356.678 108.216 348.548 108.216C340.418 108.216 338.261 104.527 338.261 96.5653C338.261 88.5947 338.261 45.7227 338.261 45.7227C338.261 44.6747 337.421 43.8213 336.385 43.8213H313.5C312.468 43.8213 311.621 44.6747 311.621 45.7227C311.621 45.7227 311.621 76.7707 311.621 100.416C311.621 124.063 324.8 129.847 342.929 129.847C357.804 129.847 369.796 121.631 369.796 121.631C369.796 121.631 370.366 125.961 370.625 126.475C370.882 126.987 371.556 127.504 372.284 127.504L386.842 127.439C387.874 127.439 388.721 126.585 388.721 125.541L388.713 45.7227C388.713 44.6747 387.872 43.8213 386.832 43.8213" fill="#161312"/>
<path d="M439.568 108.144C431.746 107.907 426.441 104.357 426.441 104.357V66.7027C426.441 66.7027 431.674 63.4947 438.096 62.9213C446.216 62.1947 454.04 64.6467 454.04 84.0174C454.04 104.443 450.509 108.475 439.568 108.144ZM448.461 41.1507C435.654 41.1507 426.944 46.8654 426.944 46.8654V6.60136C426.944 5.55202 426.104 4.70403 425.069 4.70403H402.281C401.245 4.70403 400.404 5.55202 400.404 6.60136V125.505C400.404 126.555 401.245 127.408 402.284 127.408C402.286 127.408 418.089 127.408 418.094 127.408C418.806 127.408 419.345 127.041 419.744 126.399C420.137 125.759 420.704 120.916 420.704 120.916C420.704 120.916 430.021 129.745 447.66 129.745C468.369 129.745 480.245 119.243 480.245 82.592C480.245 45.94 461.277 41.1507 448.461 41.1507" fill="#161312"/>
<path d="M199.059 43.632H182.013C182.013 43.632 181.988 21.1186 181.988 21.1146C181.988 20.2613 181.548 19.836 180.563 19.836H157.336C156.432 19.836 155.948 20.2333 155.948 21.1013V44.3706C155.948 44.3706 144.308 47.1799 143.52 47.4079C142.737 47.6346 142.16 48.3573 142.16 49.22V63.8426C142.16 64.8946 143 65.7426 144.039 65.7426H155.948C155.948 65.7426 155.948 81.0373 155.948 100.921C155.948 127.051 174.276 129.617 186.643 129.617C192.295 129.617 199.055 127.803 200.171 127.391C200.845 127.143 201.237 126.443 201.237 125.685L201.257 109.599C201.257 108.551 200.371 107.701 199.373 107.701C198.379 107.701 195.839 108.105 193.223 108.105C184.849 108.105 182.013 104.213 182.013 99.1733C182.013 94.1386 182.012 65.7426 182.012 65.7426H199.059C200.097 65.7426 200.939 64.8946 200.939 63.8426V45.5266C200.939 44.4773 200.097 43.632 199.059 43.632" fill="#161312"/>
</svg>
