<svg width="128" height="128" viewBox="0 0 128 128" fill="none" xmlns="http://www.w3.org/2000/svg">
<g clip-path="url(#clip0_407_12)">
<path d="M109.064 109.065H90.0981V79.3629C90.0981 72.28 89.9716 63.1624 80.234 63.1624C70.3556 63.1624 68.8441 70.8791 68.8441 78.847V109.063H49.8786V47.9833H68.0856V56.3303H68.3409C72.048 49.9918 78.9664 46.1919 86.3051 46.4644C105.528 46.4644 109.072 59.1083 109.072 75.5578L109.064 109.065ZM28.4787 39.634C22.4408 39.634 17.4701 34.6662 17.4701 28.6282C17.4701 22.5902 22.4385 17.6218 28.4764 17.6218C34.5137 17.6218 39.4815 22.5891 39.4826 28.6259C39.4826 34.6627 34.5154 39.6335 28.4787 39.634ZM37.9614 109.065H18.9759V47.9833H37.9614V109.065ZM118.519 0.00883068H9.445C4.32488 -0.0489955 0.0624055 4.11448 0 9.23467V118.763C0.0601154 123.886 4.32202 128.054 9.445 127.999H118.519C123.655 128.064 127.931 123.896 128 118.763V9.22722C127.931 4.09616 123.649 -0.0667484 118.519 0.000810845" fill="white"/>
</g>
<defs>
<clipPath id="clip0_407_12">
<rect width="128" height="128" fill="white"/>
</clipPath>
</defs>
</svg>
