<?xml version="1.0" encoding="UTF-8" standalone="no"?>
<svg xmlns:dc="http://purl.org/dc/elements/1.1/" xmlns:cc="http://creativecommons.org/ns#" xmlns:rdf="http://www.w3.org/1999/02/22-rdf-syntax-ns#" xmlns:svg="http://www.w3.org/2000/svg" xmlns="http://www.w3.org/2000/svg" xmlns:sodipodi="http://sodipodi.sourceforge.net/DTD/sodipodi-0.dtd" xmlns:inkscape="http://www.inkscape.org/namespaces/inkscape" version="1.1" id="svg2" xml:space="preserve" width="1101.3066" height="311.35999" viewBox="0 0 1101.3066 311.35999" sodipodi:docname="vimeo_logo_dark.eps">
  <metadata id="metadata8">
    <rdf:RDF>
      <cc:Work rdf:about="">
        <dc:format>image/svg+xml</dc:format>
        <dc:type rdf:resource="http://purl.org/dc/dcmitype/StillImage" />
      </cc:Work>
    </rdf:RDF>
  </metadata>
  <defs id="defs6" />
  <sodipodi:namedview pagecolor="#ffffff" bordercolor="#666666" borderopacity="1" objecttolerance="10" gridtolerance="10" guidetolerance="10" inkscape:pageopacity="0" inkscape:pageshadow="2" inkscape:window-width="640" inkscape:window-height="480" id="namedview4" />
  <g id="g10" inkscape:groupmode="layer" inkscape:label="ink_ext_XXXXXX" transform="matrix(1.3333333,0,0,-1.3333333,0,311.36)">
    <g id="g12" transform="scale(0.1)">
      <path d="M 1846.48,1236.48 C 1838.23,1056.58 1712.64,810.262 1469.71,497.621 1218.54,171.059 1006.04,7.76172 832.199,7.76172 724.551,7.76172 633.391,107.172 558.965,306.102 509.262,488.422 459.555,670.738 409.859,853.039 354.574,1051.86 295.305,1151.38 231.898,1151.38 c -13.816,0 -62.187,-29.1 -144.98,-87.04 L 0,1176.35 c 91.1602,80.13 181.105,160.26 269.605,240.51 121.579,105.1 212.868,160.38 273.719,165.96 143.766,13.81 232.266,-84.5 265.481,-294.94 35.879,-227.05 60.726,-368.278 74.672,-423.548 41.457,-188.383 87.039,-282.473 136.863,-282.473 38.66,0 96.73,61.11 174.2,183.301 77.33,122.199 118.8,215.168 124.37,279.06 11.03,105.46 -30.43,158.32 -124.37,158.32 -44.25,0 -89.83,-10.18 -136.74,-30.31 90.79,297.48 264.26,441.98 520.29,433.74 189.83,-5.58 279.3,-128.74 268.39,-369.49" style="fill:#ffffff;fill-opacity:1;fill-rule:nonzero;stroke:none" id="path14" />
      <path d="m 2625.81,2128.93 c -2.78,-68.86 -37.33,-134.92 -103.76,-198.21 -74.67,-71.51 -163.17,-107.28 -265.48,-107.28 -157.59,0 -233.72,68.74 -228.14,206.33 2.66,71.52 44.85,140.37 126.44,206.44 81.58,65.94 172.13,99.04 271.78,99.04 58.06,0 106.43,-22.79 145.22,-68.13 38.67,-45.46 56.62,-91.52 53.94,-138.19 z M 2986.7,653.77 C 2909.24,507.328 2802.8,374.699 2667.28,255.91 2481.92,95.6406 2296.7,15.5117 2111.47,15.5117 c -85.83,0 -151.53,27.6367 -197.11,82.9297 -45.58,55.2776 -67.03,127.0276 -64.25,215.5386 2.67,91.141 31.03,232.129 84.97,422.829 53.95,190.679 80.99,292.981 80.99,306.811 0,71.77 -24.98,107.76 -74.68,107.76 -16.6,0 -63.64,-29.1 -141.1,-87.04 l -95.4,112.01 c 88.49,80.13 176.98,160.26 265.48,240.51 118.91,105.1 207.4,160.38 265.6,165.96 91.16,8.23 158.19,-18.55 201.1,-80.62 42.79,-62.06 58.68,-142.56 47.77,-241.72 -36.01,-168.14 -74.8,-381.609 -116.26,-640.531 -2.79,-118.558 40.12,-177.719 128.62,-177.719 38.67,0 107.76,40.852 207.41,122.79 82.92,68.128 150.68,132.261 203.29,192.378 l 78.8,-103.628" style="fill:#ffffff;fill-opacity:1;fill-rule:nonzero;stroke:none" id="path16" />
      <path d="M 5577.19,653.77 C 5499.72,507.328 5393.29,374.699 5257.76,255.91 5072.42,95.6406 4887.17,15.5117 4701.96,15.5117 c -179.91,0 -266.94,99.4103 -261.38,298.4683 2.67,88.489 20.01,194.801 51.77,319.168 31.77,124.383 49.11,221.122 51.89,290.204 2.79,104.988 -29.1,157.598 -95.77,157.598 -72.12,0 -158.07,-85.821 -257.96,-257.231 -105.46,-179.778 -162.44,-353.981 -170.69,-522.598 -5.57,-119.039 6.07,-210.3202 34.92,-273.8515 -192.99,-5.5781 -328.17,26.3008 -405.27,95.4105 -69.09,60.851 -100.73,161.699 -95.15,302.82 2.66,88.488 16.24,176.98 40.72,265.469 24.37,88.492 37.94,167.293 40.73,236.519 5.58,102.302 -31.88,153.462 -112.13,153.462 -69.34,0 -144.13,-78.91 -224.38,-236.501 -80.25,-157.597 -124.61,-322.211 -132.86,-493.629 -5.58,-154.929 4.36,-262.6911 29.7,-323.5505 -189.84,-5.5781 -324.64,34.4414 -404.41,120.0315 -66.18,71.621 -96.36,180.488 -90.79,326.687 2.67,71.641 15.27,171.653 38.06,299.91 22.79,128.25 35.52,228.142 38.19,299.892 5.45,49.59 -7.03,74.45 -37.34,74.45 -16.61,0 -63.64,-28.01 -141.1,-83.9 l -99.52,112.01 c 13.82,10.91 100.85,91.16 261.35,240.51 116.13,107.77 194.93,163.05 236.38,165.84 71.9,5.57 129.96,-24.13 174.21,-89.11 44.24,-64.98 66.43,-140.37 66.43,-226.08 0,-27.64 -2.79,-53.94 -8.24,-78.8 41.45,63.53 89.82,118.93 145.22,165.97 127.16,110.54 269.6,172.86 427.2,186.68 135.53,11.03 232.27,-20.73 290.46,-95.4 46.91,-60.86 68.97,-148.02 66.3,-261.36 19.41,16.48 40.13,34.54 62.32,53.94 63.52,74.67 125.71,134.07 186.56,178.32 102.31,74.68 208.87,116.13 319.42,124.5 132.73,11.03 228.14,-20.61 286.21,-95.04 49.69,-60.61 71.88,-147.41 66.43,-260.27 -2.8,-77.21 -21.45,-189.48 -56.01,-336.878 -34.67,-147.41 -51.89,-232.024 -51.89,-254.082 -2.78,-57.949 2.8,-97.84 16.61,-119.899 13.83,-22.05 46.92,-32.961 99.54,-32.961 38.67,0 107.75,40.852 207.4,122.79 82.93,68.128 150.68,132.261 203.3,192.378 l 78.8,-103.628" style="fill:#ffffff;fill-opacity:1;fill-rule:nonzero;stroke:none" id="path18" />
      <path d="m 6191.06,1091.13 c 2.67,74.19 -27.64,111.41 -91.16,111.41 -82.91,0 -167.05,-57.1 -252.63,-171.29 -85.58,-114.191 -129.83,-223.531 -132.5,-328.031 -1.57,0 -1.57,-17.938 0,-53.699 135.28,49.46 252.63,125.089 352.04,226.941 80,87.988 121.45,159.639 124.25,214.669 z M 7132.72,658.012 C 7052.46,525.379 6894.89,392.891 6659.83,260.391 6366.7,91.8906 6069.35,7.76172 5767.99,7.76172 c -224.02,0 -384.52,74.67968 -481.26,223.88628 -69.1,102.321 -102.32,223.922 -99.52,365.012 2.67,223.899 102.32,436.77 298.69,638.73 215.66,221.11 470.11,331.79 763.23,331.79 271.05,0 414.82,-110.43 431.42,-331.06 11.03,-140.61 -66.43,-285.479 -232.25,-434.472 -177.11,-162.808 -399.8,-266.207 -667.94,-310.316 49.7,-68.98 124.36,-103.422 224.01,-103.422 199.05,0 416.16,50.559 651.33,151.899 168.62,71.152 301.37,145.113 398.22,221.722 l 78.8,-103.519" style="fill:#ffffff;fill-opacity:1;fill-rule:nonzero;stroke:none" id="path20" />
      <path d="m 7790.01,951.719 c 2.8,74.791 -7.62,143.421 -31.14,205.731 -23.53,62.3 -57.46,93.58 -101.59,93.58 -141.1,0 -257.24,-76.25 -348.38,-228.63 -77.59,-124.752 -119.06,-257.72 -124.51,-398.939 -2.78,-69.34 9.69,-130.32 37.33,-182.93 30.31,-60.98 73.22,-91.39 128.62,-91.39 124.38,0 230.94,73.32 319.43,220.25 74.66,121.949 114.68,249.359 120.24,382.328 z m 468.78,-15.641 C 8247.65,682.012 8153.69,462.461 7976.71,277.488 7799.73,92.5 7579.82,0 7317.13,0 c -218.45,0 -384.4,70.4414 -497.75,211.301 -82.91,104.859 -128.62,236.019 -136.85,393.347 -13.94,237.493 71.76,455.702 257.22,654.502 199.06,220.87 449.26,331.3 750.74,331.3 193.48,0 340.05,-64.98 439.68,-194.68 94.07,-118.8 136.87,-272.02 128.62,-459.692" style="fill:#ffffff;fill-opacity:1;fill-rule:nonzero;stroke:none" id="path22" />
    </g>
  </g>
</svg>
