<?xml version="1.0" encoding="UTF-8" standalone="no"?>
<svg
   xmlns:dc="http://purl.org/dc/elements/1.1/"
   xmlns:cc="http://creativecommons.org/ns#"
   xmlns:rdf="http://www.w3.org/1999/02/22-rdf-syntax-ns#"
   xmlns:svg="http://www.w3.org/2000/svg"
   xmlns="http://www.w3.org/2000/svg"
   viewBox="0 0 133.33333 115.56"
   height="115.56"
   width="133.33333"
   xml:space="preserve"
   id="svg2"
   version="1.1"><metadata
     id="metadata8"><rdf:RDF><cc:Work
         rdf:about=""><dc:format>image/svg+xml</dc:format><dc:type
           rdf:resource="http://purl.org/dc/dcmitype/StillImage" /></cc:Work></rdf:RDF></metadata><defs
     id="defs6" /><g
     transform="matrix(1.3333333,0,0,-1.3333333,0,115.56)"
     id="g10"><g
       transform="scale(0.1)"
       id="g12"><path
         id="path14"
         style="fill:#ffffff;fill-opacity:1;fill-rule:nonzero;stroke:none"
         d="M 999.512,666.16 C 995.059,568.633 927.07,435.082 795.566,265.582 659.609,88.5234 544.578,0 450.48,0 392.207,0 342.859,53.8945 302.578,161.742 275.664,260.586 248.77,359.43 221.855,458.277 c -29.921,107.786 -62.011,161.746 -96.328,161.746 -7.48,0 -33.652,-15.777 -78.4762,-47.191 L 0,633.559 c 49.3555,43.449 98.0352,86.89 145.938,130.394 65.82,56.985 115.234,86.957 148.164,89.985 77.832,7.488 125.734,-45.813 143.711,-159.907 19.421,-123.101 32.871,-199.672 40.429,-229.636 22.434,-102.133 47.11,-153.133 74.082,-153.133 20.93,0 52.364,33.125 94.285,99.363 41.875,66.254 64.309,116.672 67.336,151.293 5.965,57.18 -16.472,85.84 -67.336,85.84 -23.941,0 -48.621,-5.516 -74.011,-16.43 49.14,161.289 143.047,239.625 281.64,235.156 102.754,-3.027 151.192,-69.789 145.274,-200.324" /></g></g></svg>